<svg width="36" height="36" viewBox="0 0 36 36" fill="none" xmlns="http://www.w3.org/2000/svg">
<path d="M18 9.01562C22.9219 9.01562 26.9844 13.0781 26.9844 18C26.9844 23 22.9219 26.9844 18 26.9844C13 26.9844 9.01562 23 9.01562 18C9.01562 13.0781 13 9.01562 18 9.01562ZM18 23.8594C21.2031 23.8594 23.7812 21.2812 23.7812 18C23.7812 14.7969 21.2031 12.2188 18 12.2188C14.7188 12.2188 12.1406 14.7969 12.1406 18C12.1406 21.2812 14.7969 23.8594 18 23.8594ZM29.4062 8.70312C29.4062 9.875 28.4688 10.8125 27.2969 10.8125C26.125 10.8125 25.1875 9.875 25.1875 8.70312C25.1875 7.53125 26.125 6.59375 27.2969 6.59375C28.4688 6.59375 29.4062 7.53125 29.4062 8.70312ZM35.3438 10.8125C35.5 13.7031 35.5 22.375 35.3438 25.2656C35.1875 28.0781 34.5625 30.5 32.5312 32.6094C30.5 34.6406 28 35.2656 25.1875 35.4219C22.2969 35.5781 13.625 35.5781 10.7344 35.4219C7.92188 35.2656 5.5 34.6406 3.39062 32.6094C1.35938 30.5 0.734375 28.0781 0.578125 25.2656C0.421875 22.375 0.421875 13.7031 0.578125 10.8125C0.734375 8 1.35938 5.5 3.39062 3.46875C5.5 1.4375 7.92188 0.8125 10.7344 0.65625C13.625 0.5 22.2969 0.5 25.1875 0.65625C28 0.8125 30.5 1.4375 32.5312 3.46875C34.5625 5.5 35.1875 8 35.3438 10.8125ZM31.5938 28.3125C32.5312 26.0469 32.2969 20.5781 32.2969 18C32.2969 15.5 32.5312 10.0312 31.5938 7.6875C30.9688 6.20312 29.7969 4.95312 28.3125 4.40625C25.9688 3.46875 20.5 3.70312 18 3.70312C15.4219 3.70312 9.95312 3.46875 7.6875 4.40625C6.125 5.03125 4.95312 6.20312 4.32812 7.6875C3.39062 10.0312 3.625 15.5 3.625 18C3.625 20.5781 3.39062 26.0469 4.32812 28.3125C4.95312 29.875 6.125 31.0469 7.6875 31.6719C9.95312 32.6094 15.4219 32.375 18 32.375C20.5 32.375 25.9688 32.6094 28.3125 31.6719C29.7969 31.0469 31.0469 29.875 31.5938 28.3125Z" fill="white"/>
</svg>
