<svg width="41" height="34" viewBox="0 0 41 34" fill="none" xmlns="http://www.w3.org/2000/svg">
<path d="M36.3594 8.875C36.3594 9.26562 36.3594 9.57812 36.3594 9.96875C36.3594 20.8281 28.1562 33.25 13.0781 33.25C8.39062 33.25 4.09375 31.9219 0.5 29.5781C1.125 29.6562 1.75 29.7344 2.45312 29.7344C6.28125 29.7344 9.79688 28.4062 12.6094 26.2188C9.01562 26.1406 5.96875 23.7969 4.95312 20.5156C5.5 20.5938 5.96875 20.6719 6.51562 20.6719C7.21875 20.6719 8 20.5156 8.625 20.3594C4.875 19.5781 2.0625 16.2969 2.0625 12.3125V12.2344C3.15625 12.8594 4.48438 13.1719 5.8125 13.25C3.54688 11.7656 2.14062 9.26562 2.14062 6.45312C2.14062 4.89062 2.53125 3.48438 3.23438 2.3125C7.29688 7.23438 13.3906 10.5156 20.1875 10.9062C20.0312 10.2812 19.9531 9.65625 19.9531 9.03125C19.9531 4.5 23.625 0.828125 28.1562 0.828125C30.5 0.828125 32.6094 1.76562 34.1719 3.40625C35.9688 3.01562 37.7656 2.3125 39.3281 1.375C38.7031 3.32812 37.4531 4.89062 35.7344 5.90625C37.375 5.75 39.0156 5.28125 40.4219 4.65625C39.3281 6.29688 37.9219 7.70312 36.3594 8.875Z" fill="white"/>
</svg>
